<?xml version="1.0" encoding="iso-8859-1"?>
<!-- Uploaded to: SVG Repo, www.svgrepo.com, Generator: SVG Repo Mixer Tools -->
<svg version="1.1" id="Layer_1" xmlns="http://www.w3.org/2000/svg" xmlns:xlink="http://www.w3.org/1999/xlink" 
	 viewBox="0 0 512 512" xml:space="preserve">
<path style="fill:#D7F3FF;" d="M505.73,267.147c0.168-3.692,0.253-7.408,0.253-11.148c0-138.067-111.923-249.99-249.978-249.99
	c-138.067,0-249.99,111.923-249.99,249.99c0,3.74,0.084,7.456,0.253,11.148c0.337,7.913,1.058,15.742,2.129,23.45
	c3.872,27.996,12.374,54.488,24.713,78.72c41.32,81.113,125.62,136.672,222.896,136.672c97.492,0,181.949-55.811,223.149-137.225
	c12.206-24.075,20.612-50.388,24.448-78.167C504.672,282.888,505.393,275.06,505.73,267.147z"/>
<g>
	<path style="fill:#F7B239;" d="M464.037,290.597h39.565c-3.836,27.779-12.242,54.092-24.448,78.167h-15.116V290.597z"/>
	<path style="fill:#F7B239;" d="M50.365,290.597v78.167H34.214l-1.106,0.553c-12.338-24.232-20.841-50.724-24.713-78.72H50.365z"/>
</g>
<rect x="435.186" y="290.602" style="fill:#E09B2D;" width="28.85" height="78.167"/>
<polygon style="fill:#F7B239;" points="305.31,148.694 305.31,175.751 292.454,175.751 256.004,175.751 219.542,175.751 
	206.699,175.751 206.699,148.694 206.699,140.276 225.639,140.276 245.879,140.276 266.118,140.276 286.369,140.276 305.31,140.276 
	"/>
<g>
	<polygon style="fill:#E09B2D;" points="411.136,148.694 411.136,175.751 401.816,175.751 365.354,175.751 328.904,175.751 
		305.31,175.751 305.31,148.694 	"/>
	<polygon style="fill:#E09B2D;" points="206.699,148.694 206.699,175.751 183.092,175.751 146.643,175.751 110.193,175.751 
		100.873,175.751 100.873,148.694 	"/>
</g>
<g>
	<polygon style="fill:#F7B239;" points="105.082,230.468 105.082,368.764 79.226,368.764 79.226,290.597 79.226,267.147 
		79.226,230.468 	"/>
	<rect x="145.246" y="230.473" style="fill:#F7B239;" width="25.855" height="138.295"/>
	<rect x="211.267" y="230.473" style="fill:#F7B239;" width="25.855" height="138.295"/>
	<rect x="277.288" y="230.473" style="fill:#F7B239;" width="25.855" height="138.295"/>
	<rect x="343.31" y="230.473" style="fill:#F7B239;" width="25.855" height="138.295"/>
	<polygon style="fill:#F7B239;" points="435.187,290.597 435.187,368.764 409.332,368.764 409.332,230.468 435.187,230.468 
		435.187,267.147 	"/>
</g>
<g>
	<rect x="409.331" y="212.434" style="fill:#E09B2D;" width="25.855" height="18.039"/>
	<rect x="343.31" y="212.434" style="fill:#E09B2D;" width="25.855" height="18.039"/>
	<rect x="277.288" y="212.434" style="fill:#E09B2D;" width="25.855" height="18.039"/>
	<rect x="211.267" y="212.434" style="fill:#E09B2D;" width="25.855" height="18.039"/>
	<rect x="145.246" y="212.434" style="fill:#E09B2D;" width="25.855" height="18.039"/>
	<rect x="79.226" y="212.434" style="fill:#E09B2D;" width="25.855" height="18.039"/>
	<rect x="50.365" y="290.602" style="fill:#E09B2D;" width="28.862" height="78.167"/>
</g>
<g>
	<path style="fill:#F7B239;" d="M435.187,267.147h70.543c-0.337,7.913-1.058,15.742-2.129,23.45h-39.565h-28.85L435.187,267.147
		L435.187,267.147z"/>
	<path style="fill:#F7B239;" d="M79.226,267.147v23.45H50.365H8.395c-1.07-7.708-1.792-15.537-2.129-23.45H79.226z"/>
	<polygon style="fill:#F7B239;" points="401.816,175.751 411.136,175.751 435.187,175.751 435.187,212.43 409.332,212.43 
		369.166,212.43 343.311,212.43 303.145,212.43 277.29,212.43 237.124,212.43 211.269,212.43 171.103,212.43 145.248,212.43 
		105.082,212.43 79.226,212.43 76.821,212.43 76.821,175.751 100.873,175.751 110.193,175.751 146.643,175.751 183.092,175.751 
		206.699,175.751 219.542,175.751 256.004,175.751 292.454,175.751 305.31,175.751 328.904,175.751 365.354,175.751 	"/>
</g>
<path style="fill:#F4D39D;" d="M464.037,368.764h15.116c-41.2,81.414-125.656,137.225-223.149,137.225
	c-97.276,0-181.564-55.559-222.884-136.66l1.094-0.565h16.151h28.862h25.855h40.166h25.855h40.166h25.855h40.166h25.855h40.166
	h25.855h40.166h25.855L464.037,368.764L464.037,368.764z"/>
<path style="fill:#333333;" d="M256.001,0.001C114.842,0.001,0,114.842,0,256s114.842,255.999,256.001,255.999S512,397.158,512,256
	S397.159,0.001,256.001,0.001z M256.001,12.026c134.528,0,243.974,109.446,243.974,243.974c0,1.716-0.03,3.426-0.065,5.134h-58.713
	V236.39c2.89-0.438,5.111-2.91,5.111-5.921s-2.221-5.484-5.111-5.921v-42.783h7.817c3.322,0,6.013-2.693,6.013-6.013
	c0-3.32-2.691-6.013-6.013-6.013h-31.868v-15.032h6.013c3.321,0,6.013-2.693,6.013-6.013s-2.691-6.013-6.013-6.013H311.319v-2.405
	c0-3.32-2.691-6.013-6.013-6.013h-12.928v-13.228c0-3.32-2.691-6.013-6.013-6.013c-3.321,0-6.013,2.693-6.013,6.013v13.228h-8.217
	v-13.228c0-3.32-2.691-6.013-6.013-6.013c-3.321,0-6.013,2.693-6.013,6.013v13.228h-8.218v-13.228c0-3.32-2.691-6.013-6.013-6.013
	s-6.013,2.693-6.013,6.013v13.228h-8.217v-13.228c0-3.32-2.691-6.013-6.013-6.013s-6.013,2.693-6.013,6.013v13.228h-12.928
	c-3.321,0-6.013,2.693-6.013,6.013v2.405H88.843c-3.321,0-6.013,2.693-6.013,6.013s2.691,6.013,6.013,6.013h6.013v15.032H62.988
	c-3.321,0-6.013,2.693-6.013,6.013c0,3.32,2.691,6.013,6.013,6.013H73.21v42.783c-2.89,0.438-5.111,2.91-5.111,5.921
	s2.221,5.484,5.111,5.921v24.744H12.091c-0.036-1.708-0.065-3.418-0.065-5.134C12.026,121.472,121.473,12.026,256.001,12.026z
	 M375.175,362.751v-126.36c2.89-0.438,5.111-2.91,5.111-5.921s-2.221-5.484-5.111-5.921v-6.104h28.14v6.104
	c-2.89,0.438-5.111,2.91-5.111,5.921s2.221,5.484,5.111,5.921v126.361h-28.14V362.751z M309.154,362.751v-126.36
	c2.89-0.438,5.111-2.91,5.111-5.921s-2.221-5.484-5.111-5.921v-6.104h28.139v6.104c-2.89,0.438-5.111,2.91-5.111,5.921
	s2.221,5.484,5.111,5.921v126.361h-28.139V362.751z M243.133,362.751v-126.36c2.89-0.438,5.111-2.91,5.111-5.921
	s-2.221-5.484-5.111-5.921v-6.104h28.14v6.104c-2.89,0.438-5.111,2.91-5.111,5.921s2.221,5.484,5.111,5.921v126.361h-28.14V362.751z
	 M177.111,362.751v-126.36c2.89-0.438,5.111-2.91,5.111-5.921s-2.221-5.484-5.111-5.921v-6.104h28.14v6.104
	c-2.89,0.438-5.111,2.91-5.111,5.921s2.221,5.484,5.111,5.921v126.361h-28.14V362.751z M111.091,362.751v-126.36
	c2.89-0.438,5.111-2.91,5.111-5.921s-2.221-5.484-5.111-5.921v-6.104h28.139v6.104c-2.89,0.438-5.111,2.91-5.111,5.921
	s2.221,5.484,5.111,5.921v126.361h-28.139V362.751z M56.378,362.751V296.61H73.21v66.141H56.378z M15.424,296.61h28.928v66.141
	h-7.698C26.589,342.154,19.349,319.938,15.424,296.61z M200.682,154.706v15.032h-93.8v-15.032H200.682z M299.293,146.288v23.45
	h-86.585v-23.45C212.708,146.288,299.293,146.288,299.293,146.288z M311.319,169.738v-15.032h93.8v15.032H311.319z M104.176,181.764
	v7.215c0,3.32,2.691,6.013,6.013,6.013c3.322,0,6.013-2.693,6.013-6.013v-7.215h24.428v7.215c0,3.32,2.691,6.013,6.013,6.013
	s6.013-2.693,6.013-6.013v-7.215h24.428v7.215c0,3.32,2.691,6.013,6.013,6.013s6.013-2.693,6.013-6.013v-7.215h24.428v7.215
	c0,3.32,2.691,6.013,6.013,6.013s6.013-2.693,6.013-6.013v-7.215h24.428v7.215c0,3.32,2.691,6.013,6.013,6.013
	c3.322,0,6.013-2.693,6.013-6.013v-7.215h24.428v7.215c0,3.32,2.691,6.013,6.013,6.013c3.322,0,6.013-2.693,6.013-6.013v-7.215
	h24.428v7.215c0,3.32,2.691,6.013,6.013,6.013c3.322,0,6.013-2.693,6.013-6.013v-7.215h24.428v7.215c0,3.32,2.691,6.013,6.013,6.013
	c3.321,0,6.013-2.693,6.013-6.013v-7.215h24.428v7.215c0,3.32,2.691,6.013,6.013,6.013c3.322,0,6.013-2.693,6.013-6.013v-7.215
	h21.346v24.653H85.241v-24.653H104.176z M415.341,218.443h13.83v6.013h-13.83V218.443z M363.15,224.455h-13.83v-6.013h13.83V224.455
	z M297.128,224.455h-13.83v-6.013h13.83V224.455z M231.107,224.455h-13.83v-6.013h13.83V224.455z M165.085,224.455h-13.83v-6.013
	h13.83V224.455z M99.065,224.455h-13.83v-6.013h13.83V224.455z M73.21,284.584H13.709c-0.444-3.783-0.803-7.591-1.071-11.424H73.21
	V284.584z M85.236,290.633c0-0.012,0.004-0.023,0.004-0.035v-23.45c0-0.012-0.004-0.023-0.004-0.035v-30.631h13.83v126.27h-13.83
	V290.633z M151.256,236.481h13.83v126.27h-13.83C151.256,362.751,151.256,236.481,151.256,236.481z M217.278,236.481h13.83v126.27
	h-13.83V236.481z M283.299,236.481h13.83v126.27h-13.83V236.481z M349.32,236.481h13.83v126.27h-13.83V236.481z M415.341,236.481
	h13.83v126.27h-13.83V236.481z M441.196,296.61h16.832v66.141h-16.832V296.61z M470.054,362.751V296.61h26.521
	c-3.925,23.329-11.165,45.544-21.23,66.141H470.054z M441.2,284.584v-11.424h58.162c-0.268,3.834-0.628,7.641-1.072,11.424H441.2z
	 M256.001,499.975c-91.435,0-171.268-50.568-213.041-125.197h426.081C427.268,449.407,347.436,499.975,256.001,499.975z"/>
</svg>